<svg width="44" height="37" viewBox="0 0 44 37" fill="none" xmlns="http://www.w3.org/2000/svg">
<path d="M43.8377 15.5828C43.6517 15.1447 43.5204 14.6816 43.3826 14.2238C43.2516 13.7914 43.2311 13.2959 43.0042 12.927C42.515 12.1304 42.3019 11.3159 42.4547 10.3969C42.4768 10.2637 42.4738 10.0844 42.4017 9.98353C42.0435 9.47976 41.7335 8.96954 41.8689 8.31292C41.9413 8.32019 42.0368 8.33122 42.1872 8.34629C42.0904 8.20421 42.0344 8.0936 41.9523 8.00668C41.5683 7.59334 41.5177 7.18322 41.8089 6.66627C42.0495 6.23786 42.1711 5.74109 42.3269 5.26962C42.3748 5.12673 42.3705 4.9658 42.3896 4.81322C42.0096 5.06107 41.7884 5.42059 41.4714 5.59954C41.1407 5.7828 40.676 5.92139 40.3441 5.82505C40.1649 5.77339 40.1186 5.19239 40.0557 4.84282C40.0258 4.6679 40.0885 4.47522 40.1119 4.28981C40.0724 4.25779 40.0312 4.22442 39.9889 4.19213C39.7798 4.32722 39.5091 4.41898 39.3724 4.60736C38.9324 5.22441 38.4079 4.92651 37.8665 4.81026C37.6808 5.38964 37.3105 5.67651 36.6477 5.62457C36.1259 5.5842 35.5899 5.65256 35.0654 5.69777C34.4026 5.75293 34.3138 5.68081 34.2877 4.96796C33.8832 5.40929 33.4788 5.85143 33.0837 6.28388C32.9031 6.23194 32.6588 6.16359 32.4142 6.09443C32.302 6.11434 32.2379 5.90605 32.2309 5.9074C31.8948 6.00105 31.7145 5.79249 31.5202 5.58286C31.5038 5.56591 31.2621 5.67785 31.2444 5.75778C31.168 6.07963 31.1351 6.41224 31.0791 6.79006C30.7909 6.58285 30.5913 6.43888 30.3289 6.24809C30.2562 6.5659 30.2059 6.78441 30.147 7.03925C30.0159 6.97305 29.9053 6.91842 29.7659 6.85007C29.7659 7.09065 29.7659 7.27714 29.7659 7.48139C29.4107 7.58311 29.077 7.68026 28.8994 7.73004C28.6588 8.17353 28.447 8.50022 28.3006 8.85409C28.1669 9.17998 28.1053 9.5352 28.0138 9.87427C28.1109 9.91194 28.1887 9.94262 28.3297 9.99725C28.115 10.1361 27.9648 10.2338 27.6696 10.4257C27.8311 9.17487 27.9511 8.08768 28.1206 7.00804C28.3146 5.76989 28.3381 5.76181 27.2571 5.15283C26.9756 4.99433 26.9263 4.83905 27.0714 4.55649C27.2051 4.28927 27.3897 3.99541 27.3827 3.71743C27.372 3.08611 27.6012 2.71259 28.2274 2.59338C28.2439 2.59069 28.2519 2.53471 28.2643 2.50269C28.2191 2.5226 28.1755 2.54171 28.1319 2.56135C27.9513 2.21152 27.7221 1.87675 27.6045 1.50781C27.1056 -0.0610696 25.478 -0.486524 24.2783 0.616266C23.4204 1.40555 23.5297 2.78821 23.8615 3.54278C24.1279 4.14557 24.1459 4.22792 23.5321 4.45101C23.2972 4.53631 23.0674 4.63669 22.8298 4.70262C22.1869 4.87888 21.801 5.28604 21.6234 5.92543C21.4441 6.56617 21.234 7.1991 21.0426 7.8358C20.7665 8.75049 20.3107 9.08552 19.3228 9.10598C19.1643 9.10867 19.0009 9.13612 18.8513 9.18725C17.8018 9.55 16.7563 9.92325 15.6552 10.3113C15.9907 10.9738 16.4361 11.6041 17.0811 12.0535C17.4447 12.3078 17.547 12.5516 17.3949 12.9805C17.1481 13.6762 17.3274 14.3301 17.8171 14.8616C18.2496 15.3304 18.745 15.7389 19.2014 16.1864C19.6347 16.6121 20.0521 17.0542 20.5262 17.5413C20.1737 17.7593 19.9552 17.9076 19.7262 18.0351C19.2162 18.3166 18.7184 18.4641 18.111 18.2332C17.6799 18.0701 17.1748 18.0701 16.7022 18.0502C16.2684 18.0324 16.1961 18.2797 16.2792 18.6839C16.3632 19.0844 16.3484 19.5069 16.3632 19.9194C16.3659 19.9921 16.2278 20.3785 16.0973 20.7367C15.91 20.7652 15.7154 20.7665 15.5085 20.7229C15.4353 20.7063 15.3403 20.8131 15.2523 20.8553C15.0664 20.9428 14.8847 21.0852 14.6901 21.104C13.029 21.2749 11.554 21.8841 10.2932 22.9708C9.75154 23.4382 9.23298 23.7948 8.50666 23.3739C8.40413 23.3152 8.26554 23.3098 8.14229 23.3004C6.99241 23.213 5.92299 23.4218 5.22493 24.421C4.6948 25.182 4.28872 26.0305 3.8229 26.837C3.41305 27.5447 3.14583 28.2676 3.43969 29.0983C3.53872 29.3827 3.3891 29.5235 3.09928 29.5644C2.8334 29.6037 2.57318 29.679 2.19535 29.7651C2.54115 29.9508 2.75698 30.0657 3.00966 30.2011C2.81349 30.4731 2.48491 30.7258 2.45423 31.01C2.38857 31.6195 2.00537 31.9338 1.61059 32.292C1.43702 32.4505 1.18541 32.8084 1.23815 32.8808C1.50725 33.2525 1.69724 32.8413 1.92948 32.7425C2.08475 32.6771 2.29923 32.5853 2.41656 32.6456C2.51559 32.6962 2.56484 32.9532 2.54519 33.1077C2.48249 33.5915 2.3552 34.0681 2.2925 34.552C2.27555 34.6763 2.24056 34.7694 2.19428 34.8472H1.07346C0.481697 34.8477 0 35.3289 0 35.9233C0 36.5191 0.481697 37 1.07615 37H38.7282C39.3226 37 39.8038 36.5191 39.8038 35.9233C39.8038 35.3289 39.3226 34.8477 38.7282 34.8477H14.7916C15.3683 33.8776 15.9531 32.9128 16.5244 31.9384C16.7205 31.6036 16.9143 31.2552 17.0305 30.8889C17.1428 30.5364 17.3298 30.4204 17.6831 30.408C19.2445 30.352 20.809 30.3273 22.3637 30.1906C23.8265 30.062 25.3009 29.8954 26.6427 29.1997C26.7589 29.1395 26.9064 29.1381 27.0431 29.1233C27.4694 29.0727 27.901 29.0523 28.3235 28.9718C28.6664 28.9061 28.9877 28.7353 29.3305 28.6753C30.6698 28.443 31.883 27.9646 32.9053 27.038C33.4575 26.538 34.0982 26.1852 34.88 26.2619C35.0754 26.2794 35.4088 26.3903 35.4198 26.4874C35.451 26.784 35.4591 27.1268 35.01 27.2253C34.6779 27.2977 34.3759 27.4767 34.4825 27.9454C34.0315 28.0289 33.5641 28.0604 33.1378 28.2065C32.3178 28.488 31.6523 28.9772 31.4077 29.8722C31.1698 30.7425 31.6044 31.1841 32.4736 30.9968C32.6539 30.9573 32.9136 30.9707 33.042 31.0749C33.3235 31.2988 33.5694 31.277 33.8181 31.0899C34.5452 30.5461 35.4386 30.2194 35.9268 29.3625C36.1044 29.0509 36.4637 28.8461 36.7042 28.5644C36.9559 28.2748 37.1854 27.9635 37.3875 27.6381C37.8713 26.8618 38.2788 26.0324 38.8183 25.2988C39.4316 24.4651 39.5546 23.7342 38.9397 22.8895C38.497 22.2829 38.0121 21.6912 37.4556 21.1936C37.1249 20.896 36.6195 20.7935 36.197 20.5927C36.0509 20.5243 35.8431 20.4587 35.7925 20.3371C35.4658 19.558 35.19 18.7561 34.8633 17.9759C34.7419 17.6834 34.7909 17.4792 35.0479 17.35C35.4744 17.1377 35.9225 16.9722 36.3517 16.7652C36.6959 16.6005 37.0239 16.403 37.36 16.2192C37.106 16.3045 36.8493 16.3901 36.584 16.4797C36.3845 16.5473 36.1795 16.6156 35.9634 16.688C35.8924 16.7119 35.8186 16.7372 35.7435 16.7609C36.0412 16.2416 36.2804 15.8263 36.543 15.3713C36.9723 15.4149 37.2947 15.6595 37.4558 16.1229C37.9943 16.5193 38.5137 16.9469 39.085 17.287C39.2134 17.3629 39.5411 17.1552 39.7435 17.0252C39.8555 16.9528 39.8964 16.7703 40.0578 16.4808C40.2163 16.8395 40.3393 17.0548 40.4077 17.287C40.4787 17.5303 40.4978 17.7878 40.5239 17.9409C40.8805 17.9964 41.184 17.9684 41.4041 18.0922C42.4138 18.6619 43.0164 18.4202 43.3511 17.6048C43.4168 17.4436 43.518 17.287 43.6356 17.16C44.0739 16.678 44.085 16.1627 43.8377 15.5828ZM9.86349 34.8477C10.2093 34.3612 10.5564 33.8736 10.902 33.387C10.973 33.3951 11.0462 33.4034 11.1172 33.4115C11.1705 33.891 11.2335 34.3682 11.2655 34.8477H9.86349ZM24.9823 12.5484C24.9495 12.607 24.914 12.6646 24.8811 12.7219C24.847 12.7793 24.8128 12.8368 24.7816 12.8955C24.735 12.9843 24.6955 13.0718 24.6653 13.1662C24.6462 13.2265 24.6325 13.2892 24.6244 13.3519C24.6107 13.4482 24.604 13.5494 24.5983 13.6552C24.5927 13.7618 24.5859 13.8737 24.5752 13.9926C24.5176 13.9536 24.4465 13.9229 24.3728 13.895C24.3001 13.867 24.2224 13.8403 24.1486 13.8123C24.0504 13.7741 23.9573 13.7311 23.8838 13.6708C23.8125 13.6108 23.7609 13.5322 23.7471 13.4243C23.7428 13.3982 23.7428 13.3689 23.7442 13.3382C23.7471 13.3067 23.7498 13.2733 23.7579 13.2383C23.7797 13.1251 23.8001 13.0258 23.8262 12.9378C23.8618 12.8059 23.9013 12.7001 23.9492 12.6186C23.9821 12.564 24.0162 12.5196 24.0558 12.4827C24.1185 12.4294 24.1895 12.396 24.277 12.381C24.4546 12.349 24.6925 12.385 25.0313 12.4596C25.0154 12.491 25.0003 12.5198 24.9823 12.5484ZM27.393 29.0345C27.3655 28.9511 27.3354 28.8679 27.3082 28.7845C27.6952 28.6629 28.0816 28.5399 28.4696 28.4183C28.4887 28.4756 28.5081 28.5345 28.527 28.5918C28.1486 28.7396 27.7702 28.8884 27.393 29.0345ZM31.8205 27.5536C31.1949 27.8147 30.5444 28.0184 29.8967 28.2229C29.7191 28.2791 29.5197 28.2681 29.1916 28.3023C30.0267 27.8047 30.729 27.3636 31.4572 26.9713C31.6077 26.8892 31.8561 26.9904 32.0571 27.0071C31.9788 27.1965 31.9516 27.4987 31.8205 27.5536ZM36.1222 15.7311C35.7984 16.1423 35.4486 16.5327 35.0988 16.9227C34.9825 17.0532 34.8652 17.1837 34.7503 17.3137C34.701 17.2814 34.6518 17.248 34.6025 17.216C34.5998 16.9692 34.623 16.7313 34.6738 16.5004C34.6927 16.4081 34.7174 16.3174 34.7462 16.2278C34.76 16.1829 34.7748 16.1382 34.7914 16.0946C34.9201 15.7421 35.1111 15.4135 35.3625 15.1108C35.3843 15.0849 35.4252 15.0707 35.4801 15.0664C35.4954 15.065 35.5089 15.065 35.5239 15.065C35.5538 15.065 35.5866 15.0677 35.6208 15.0718C35.6892 15.0798 35.7643 15.0957 35.8353 15.1148C35.8544 15.1207 35.8738 15.125 35.8899 15.1307C35.9419 15.1476 35.9938 15.1654 36.0377 15.184C36.0541 15.1907 36.0675 15.1961 36.0813 15.2039C36.166 15.2424 36.2069 15.6218 36.1222 15.7311ZM35.644 14.4493C35.8326 14.1972 35.9747 14.0101 36.1851 13.7287C36.2029 13.7607 36.2209 13.7914 36.2398 13.8193C36.2807 13.8767 36.3272 13.9259 36.3794 13.9703C36.4039 13.9929 36.4311 14.0142 36.4585 14.0352C36.5406 14.0968 36.6294 14.1514 36.7155 14.2066C36.8878 14.3199 37.049 14.445 37.1324 14.656C37.1609 14.7257 37.1776 14.8072 37.1857 14.8993C37.1897 14.9458 37.1897 14.9956 37.187 15.0489C36.6238 14.8312 36.1714 14.6549 35.644 14.4493ZM39.4798 16.8051C38.9932 16.5701 38.4932 16.3535 38.0247 16.0863C37.8974 16.0133 37.8609 15.7843 37.7815 15.6258C37.94 15.5712 38.1243 15.4372 38.2543 15.4776C38.3146 15.4961 38.3746 15.5193 38.4319 15.5486C38.5481 15.6046 38.6587 15.6775 38.7693 15.7502C38.824 15.787 38.8786 15.8244 38.9332 15.8594C38.9758 15.8874 39.022 15.9167 39.0646 15.9461C39.1943 16.0343 39.3226 16.1307 39.4319 16.2413C39.458 16.2679 39.4811 16.2986 39.5032 16.3309C39.5468 16.3949 39.581 16.4681 39.6178 16.5392C39.6356 16.576 39.6536 16.611 39.6725 16.6444C39.6095 16.6993 39.5441 16.7526 39.4798 16.8051Z" fill="#DD9715"/>
</svg>
