<svg width="37" height="37" viewBox="0 0 37 37" fill="none" xmlns="http://www.w3.org/2000/svg">
<path d="M17.7071 37C17.8359 36.377 17.9247 35.7464 17.9731 35.112C18.002 34.7313 18.0168 34.3431 18.0168 33.9558C18.0168 25.6968 11.299 18.9807 3.04176 18.9807C2.01983 18.9812 1.00062 19.0861 0 19.2937C0.198632 23.9261 2.12799 28.3154 5.40667 31.5939C8.68535 34.8724 13.0747 36.8016 17.7071 37Z" fill="#DD9715"/>
<path d="M20.8645 16.1355C19.1401 14.4197 17.7732 12.3791 16.8428 10.1315C15.9124 7.88399 15.437 5.47425 15.4441 3.04176C15.444 2.09007 15.5164 1.13975 15.6605 0.199036C11.7773 0.803592 8.18681 2.62685 5.4076 5.40547C2.62839 8.18408 0.804361 11.7742 0.198975 15.6573C1.13977 15.5142 2.09009 15.443 3.0417 15.4442C5.47442 15.4375 7.8843 15.9134 10.1318 16.8444C12.3794 17.7754 14.42 19.1429 16.1354 20.8678C17.8593 22.5832 19.226 24.6233 20.1564 26.8702C21.0868 29.1172 21.5624 31.5263 21.5557 33.9582C21.5557 34.4323 21.5376 34.9113 21.5021 35.3812C21.4665 35.8512 21.4104 36.3318 21.3369 36.8018C25.2206 36.1975 28.8117 34.3743 31.5914 31.5955C34.371 28.8167 36.1954 25.2262 36.8009 21.3427C35.8601 21.4858 34.9098 21.557 33.9582 21.5558C31.5257 21.5629 29.1159 21.0875 26.8684 20.1571C24.6209 19.2267 22.5802 17.8598 20.8645 16.1355Z" fill="#DD9715"/>
<path d="M33.9582 18.0168C34.9801 18.0172 35.9993 17.9131 37 17.7063C36.8014 13.0741 34.8722 8.68487 31.5936 5.40636C28.3151 2.12786 23.9259 0.198617 19.2937 0C19.0869 1.00071 18.9828 2.01991 18.9832 3.04176C18.9832 11.299 25.701 18.0168 33.9582 18.0168Z" fill="#DD9715"/>
</svg>
