<svg width="34" height="37" viewBox="0 0 34 37" fill="none" xmlns="http://www.w3.org/2000/svg">
<path d="M15.5999 13.9174C17.5286 14.5622 19.6143 13.5219 20.259 11.5934C20.9037 9.66479 19.8632 7.57927 17.9348 6.93442C16.0062 6.2894 13.9202 7.33049 13.2757 9.2584C12.631 11.1869 13.6714 13.2727 15.5999 13.9174Z" fill="#DD9715"/>
<path d="M32.9523 8.82501e-05H30.3465C30.0246 8.82501e-05 29.7639 0.260691 29.7639 0.582716V3.46602H25.7573C25.6222 3.37301 25.4673 3.30444 25.2963 3.27002C24.9508 3.20039 24.6105 3.28105 24.3414 3.46602H9.19266C8.96392 3.30885 8.68249 3.22528 8.38429 3.24955C8.15828 3.2679 7.95195 3.34609 7.77775 3.46602H3.77119V0.582627C3.77119 0.260691 3.5105 0 3.18848 0H0.582716C0.260691 0 0 0.260603 0 0.582627V7.96413C0 8.28589 0.260603 8.54676 0.582716 8.54676H3.18848C3.51041 8.54676 3.77119 8.28598 3.77119 7.96413V5.081H7.27843L7.78772 11.358C7.80837 11.6164 7.90395 11.871 8.07921 12.0881L8.18758 12.2225L12.3508 17.3858C12.38 17.4216 12.4118 17.4576 12.4445 17.4929V25.4066L9.23988 35.0235C9.00504 35.7253 9.31913 36.5103 10.0019 36.8457C10.7463 37.2115 11.646 36.9048 12.0117 36.1605L17.1085 25.792H17.5544L20.7933 29.5261L19.7248 35.1148C19.5858 35.8379 19.9965 36.5722 20.7134 36.8176C21.4984 37.0863 22.3522 36.6678 22.6209 35.8832L24.8199 29.461C24.986 28.9663 24.9262 28.393 24.6039 27.9328L24.468 27.7383L21.091 22.9145V17.4931C21.123 17.4586 21.1546 17.4233 21.1847 17.3859L25.3479 12.2226L25.456 12.0886C25.619 11.8869 25.7252 11.6358 25.7478 11.358L26.2571 5.081H29.7643V7.96413C29.7643 8.28589 30.025 8.54676 30.3469 8.54676H32.9528C33.2747 8.54676 33.5355 8.28598 33.5355 7.96413V0.582627C33.535 0.260691 33.2744 8.82501e-05 32.9523 8.82501e-05ZM22.6012 10.3248L20.9401 12.0226C20.2806 13.7483 18.628 14.8945 16.7685 14.8945H16.7683C16.2874 14.8945 15.8105 14.8168 15.351 14.6632C14.219 14.2845 13.3024 13.4879 12.7698 12.4202C12.7046 12.2894 12.6462 12.1565 12.5943 12.0219L10.9339 10.3248L9.87907 5.081H23.6561L22.6012 10.3248Z" fill="#DD9715"/>
</svg>
