<svg width="38" height="37" viewBox="0 0 38 37" fill="none" xmlns="http://www.w3.org/2000/svg">
<path d="M7.43871 7.43836C3.77427 11.1028 1.92925 15.7476 0.996826 19.4368L17.564 36.0007C21.2532 35.0715 25.898 33.2265 29.5624 29.5588C33.2269 25.891 35.0719 21.2496 36.0043 17.5604L19.4371 0.999786C15.7479 1.9289 11.1031 3.77392 7.43871 7.43836ZM22.1881 12.9668L24.034 11.1259C24.2818 10.901 24.6067 10.7801 24.9413 10.7882C25.2759 10.7964 25.5946 10.9329 25.8312 11.1696C26.0679 11.4062 26.2044 11.7249 26.2126 12.0595C26.2207 12.3941 26.0998 12.7189 25.8749 12.9668L24.034 14.8127L24.9557 15.7352C25.2001 15.9796 25.3374 16.3112 25.3374 16.6569C25.3374 17.0026 25.2001 17.3341 24.9557 17.5785C24.7112 17.823 24.3797 17.9603 24.034 17.9603C23.6883 17.9603 23.3567 17.823 23.1123 17.5785L22.1906 16.6569L20.3439 18.5002L21.2656 19.4219C21.5101 19.6664 21.6474 19.9979 21.6474 20.3436C21.6474 20.6893 21.5101 21.0208 21.2656 21.2653C21.0212 21.5097 20.6896 21.6471 20.3439 21.6471C19.9982 21.6471 19.6667 21.5097 19.4223 21.2653L18.5006 20.3436L16.6572 22.1878L17.5789 23.1095C17.6999 23.2305 17.7959 23.3742 17.8614 23.5323C17.9269 23.6905 17.9607 23.86 17.9607 24.0312C17.9607 24.2023 17.9269 24.3718 17.8614 24.53C17.7959 24.6881 17.6999 24.8318 17.5789 24.9528C17.4578 25.0739 17.3142 25.1699 17.156 25.2354C16.9979 25.3009 16.8284 25.3346 16.6572 25.3346C16.486 25.3346 16.3165 25.3009 16.1584 25.2354C16.0002 25.1699 15.8566 25.0739 15.7355 24.9528L14.813 24.0336L12.9672 25.8745C12.7193 26.0994 12.3944 26.2203 12.0598 26.2122C11.7252 26.2041 11.4066 26.0676 11.1699 25.8309C10.9332 25.5942 10.7967 25.2756 10.7886 24.941C10.7805 24.6064 10.9014 24.2815 11.1263 24.0336L12.9672 22.1878L12.0455 21.2653C11.801 21.0208 11.6637 20.6893 11.6637 20.3436C11.6637 19.9979 11.801 19.6664 12.0455 19.4219C12.2899 19.1775 12.6215 19.0401 12.9672 19.0401C13.3129 19.0401 13.6444 19.1775 13.8888 19.4219L14.8105 20.3436L16.6572 18.5002L15.7355 17.5785C15.6145 17.4575 15.5185 17.3138 15.453 17.1557C15.3875 16.9975 15.3537 16.828 15.3537 16.6569C15.3537 16.4857 15.3875 16.3162 15.453 16.158C15.5185 15.9999 15.6145 15.8562 15.7355 15.7352C15.8566 15.6141 16.0002 15.5181 16.1584 15.4526C16.3165 15.3871 16.486 15.3534 16.6572 15.3534C16.8284 15.3534 16.9979 15.3871 17.156 15.4526C17.3142 15.5181 17.4578 15.6141 17.5789 15.7352L18.5006 16.6569L20.3439 14.8127L19.4223 13.891C19.1778 13.6465 19.0405 13.315 19.0405 12.9693C19.0405 12.6236 19.1778 12.2921 19.4223 12.0476C19.6667 11.8032 19.9982 11.6658 20.3439 11.6658C20.6896 11.6658 21.0212 11.8032 21.2656 12.0476L22.1881 12.9668Z" fill="white"/>
<path d="M36.717 13.8447C37.3208 9.34121 37.0474 3.91269 35.0653 1.9347C33.0832 -0.0432877 27.6588 -0.319958 23.1552 0.282936C22.9479 0.311016 22.7291 0.342399 22.502 0.377912L36.6245 14.5005C36.6576 14.2709 36.689 14.052 36.717 13.8447Z" fill="white"/>
<path d="M0.284084 23.1558C-0.319636 27.6593 -0.0462687 33.0878 1.93585 35.0658C3.31837 36.4491 6.38818 37 9.65041 37C11.0533 36.9977 12.4546 36.9031 13.8451 36.7167C14.0524 36.6887 14.2712 36.6573 14.4983 36.6218L0.375757 22.4992C0.343548 22.7296 0.312164 22.9485 0.284084 23.1558Z" fill="white"/>
</svg>
