<svg width="38" height="37" viewBox="0 0 38 37" fill="none" xmlns="http://www.w3.org/2000/svg">
<path d="M35.8151 21.9508L35.7723 19.5746C34.5681 19.5464 33.3694 19.402 32.193 19.1435L31.7372 20.7249C31.6937 20.8894 31.6178 21.0436 31.5138 21.1784C31.4099 21.3132 31.28 21.4258 31.1319 21.5096C30.9837 21.5934 30.8203 21.6467 30.6513 21.6664C30.4822 21.6861 30.3109 21.6718 30.1475 21.6243C29.984 21.5768 29.8317 21.4971 29.6996 21.3899C29.5674 21.2827 29.458 21.1501 29.3778 20.9999C29.2977 20.8498 29.2484 20.6851 29.2328 20.5156C29.2172 20.3462 29.2357 20.1753 29.2872 20.013L29.7429 18.4289C28.599 18.0094 27.4986 17.4798 26.4571 16.8475L25.5055 18.1938C25.3102 18.4702 25.0131 18.6577 24.6795 18.715C24.3459 18.7724 24.0032 18.6949 23.7268 18.4995C23.4504 18.3042 23.2629 18.0071 23.2055 17.6735C23.1482 17.3399 23.2257 16.9972 23.421 16.7208L24.3698 15.3782C23.3662 14.5639 22.4498 13.6475 21.6355 12.6438L20.2938 13.5954C20.1569 13.6921 20.0023 13.7609 19.8389 13.7979C19.6754 13.8349 19.5063 13.8393 19.3411 13.8109C19.1759 13.7825 19.018 13.7219 18.8762 13.6324C18.7345 13.543 18.6118 13.4265 18.5151 13.2896C18.4183 13.1527 18.3495 12.9982 18.3126 12.8347C18.2756 12.6712 18.2712 12.5021 18.2996 12.3369C18.3569 12.0033 18.5444 11.7062 18.8209 11.5109L20.1644 10.5611C19.5305 9.51978 18.9999 8.41897 18.5802 7.2744L17.0016 7.73013C16.8406 7.77687 16.6721 7.79146 16.5055 7.77306C16.3389 7.75466 16.1776 7.70363 16.0308 7.62288C15.8839 7.54214 15.7544 7.43326 15.6497 7.30247C15.5449 7.17167 15.4669 7.02153 15.4202 6.8606C15.3734 6.69967 15.3588 6.53111 15.3773 6.36454C15.3957 6.19797 15.4467 6.03666 15.5274 5.88981C15.6082 5.74297 15.717 5.61346 15.8478 5.50869C15.9786 5.40393 16.1288 5.32595 16.2897 5.2792L17.8665 4.82347C17.653 3.84567 17.5179 2.85235 17.4628 1.85301C17.4524 1.67071 17.4451 1.48842 17.4409 1.30613L15.7802 1.27605C15.4459 1.26984 15.1274 1.13266 14.8932 0.894028C14.659 0.655392 14.5278 0.334363 14.5279 0C11.1676 0.744811 8.07347 2.39033 5.57737 4.76006C3.08127 7.12979 1.27736 10.1343 0.359131 13.4514C0.724603 13.4742 1.06812 13.6337 1.32142 13.8981C1.57471 14.1626 1.71926 14.5126 1.72633 14.8788L1.76643 17.1055C1.91044 17.11 2.05446 17.1155 2.19756 17.1237C3.19689 17.1789 4.19022 17.3139 5.16802 17.5275L5.62375 15.9506C5.71815 15.6256 5.93779 15.3514 6.23436 15.1883C6.53093 15.0253 6.88013 14.9867 7.20514 15.0811C7.53016 15.1755 7.80436 15.3951 7.96743 15.6917C8.1305 15.9883 8.16908 16.3375 8.07468 16.6625L7.61895 18.2411C8.76165 18.6611 9.86063 19.1917 10.9002 19.8253L11.8436 18.4818C12.0389 18.2053 12.336 18.0178 12.6696 17.9605C13.0032 17.9031 13.3459 17.9807 13.6223 18.176C13.8987 18.3713 14.0862 18.6684 14.1436 19.002C14.2009 19.3356 14.1234 19.6783 13.9281 19.9547L12.9811 21.2973C13.4829 21.7045 13.9632 22.1374 14.4203 22.5943C14.8774 23.0511 15.3103 23.5315 15.7173 24.0335L17.0599 23.0847C17.3366 22.8893 17.6795 22.8119 18.0132 22.8695C18.347 22.927 18.6442 23.1147 18.8395 23.3914C19.0349 23.668 19.1123 24.011 19.0548 24.3447C18.9972 24.6785 18.8095 24.9757 18.5328 25.171L17.1875 26.1217C17.8201 27.1629 18.3504 28.263 18.7707 29.4066L20.3548 28.9463C20.6799 28.8519 21.0291 28.8905 21.3256 29.0536C21.6222 29.2166 21.8418 29.4908 21.9362 29.8158C22.0306 30.1409 21.9921 30.4901 21.829 30.7866C21.6659 31.0832 21.3917 31.3028 21.0667 31.3972L19.4853 31.853C19.737 33 19.8804 34.1682 19.9137 35.342L21.5789 35.3721C21.9656 35.3791 22.3336 35.5393 22.6022 35.8176C22.8707 36.0958 23.0177 36.4694 23.0109 36.856C23.0103 36.8923 23.0078 36.9285 23.0036 36.9645C26.3679 36.1634 29.449 34.4572 31.9133 32.0308C34.3777 29.6044 36.1314 26.5501 36.9845 23.1986C36.6697 23.1723 36.3759 23.0301 36.1599 22.7996C35.9438 22.5691 35.821 22.2667 35.8151 21.9508Z" fill="white"/>
<path d="M22.8257 0.123961C22.8209 0.459064 22.6845 0.778832 22.4459 1.01418C22.2073 1.24954 21.8857 1.38158 21.5506 1.38178H21.5278L19.9956 1.35444C20.0002 1.47384 20.0047 1.59324 20.0111 1.71264C20.0561 2.51866 20.1609 3.32022 20.3246 4.11071L21.8094 3.67867C22.1239 3.61312 22.4515 3.66856 22.7268 3.83394C23.0022 3.99932 23.2051 4.26247 23.2949 4.57085C23.3848 4.87924 23.3551 5.21017 23.2117 5.49759C23.0682 5.78501 22.8217 6.00777 22.5213 6.1214L21.0383 6.55252C21.3698 7.42725 21.7763 8.27167 22.2533 9.07637L23.5148 8.18496C23.6516 8.08824 23.8062 8.01943 23.9697 7.98246C24.1332 7.94549 24.3023 7.94107 24.4675 7.96947C24.6326 7.99787 24.7906 8.05851 24.9323 8.14796C25.0741 8.2374 25.1968 8.35388 25.2935 8.49075C25.3902 8.62762 25.459 8.7822 25.496 8.94567C25.533 9.10913 25.5374 9.27828 25.509 9.44345C25.4806 9.60862 25.4199 9.76658 25.3305 9.90831C25.2411 10.05 25.1246 10.1728 24.9877 10.2695L23.7244 11.1618C24.0434 11.5464 24.3813 11.9168 24.738 12.2729C25.0934 12.6293 25.4671 12.9656 25.8499 13.2846L26.7414 12.0231C26.8386 11.8863 26.9619 11.7699 27.1041 11.6807C27.2463 11.5914 27.4047 11.5311 27.5703 11.5031C27.7358 11.475 27.9053 11.4799 28.069 11.5174C28.2326 11.5548 28.3873 11.6242 28.5242 11.7214C28.6611 11.8187 28.7774 11.9419 28.8667 12.0842C28.9559 12.2264 29.0162 12.3848 29.0443 12.5504C29.0723 12.7159 29.0674 12.8854 29.0299 13.049C28.9925 13.2127 28.9231 13.3674 28.8259 13.5043L27.9363 14.7621C28.7409 15.2387 29.5849 15.6452 30.4592 15.9771L30.8931 14.4932C30.9875 14.1682 31.2071 13.894 31.5037 13.7309C31.8003 13.5678 32.1495 13.5293 32.4745 13.6237C32.7995 13.7181 33.0737 13.9377 33.2368 14.2343C33.3998 14.5308 33.4384 14.88 33.344 15.2051L32.9129 16.6871C33.8417 16.8804 34.7856 16.9917 35.7339 17.0198L35.7193 16.1995C35.7134 15.8612 35.8422 15.5344 36.0772 15.291C36.3122 15.0476 36.6343 14.9075 36.9725 14.9015H36.9953C37.0745 14.9021 37.1535 14.9098 37.2314 14.9243C36.5364 11.3105 34.8047 7.97708 32.2475 5.33069C29.6903 2.6843 26.4181 0.83937 22.8303 0.0209656C22.8248 0.0574242 22.8266 0.090237 22.8257 0.123961Z" fill="white"/>
<path d="M14.3446 36.7056C14.3516 36.319 14.5118 35.9509 14.7901 35.6824C15.0683 35.4139 15.4419 35.2668 15.8285 35.2737L17.3561 35.3001C17.3234 34.3825 17.213 33.4693 17.0262 32.5703L15.5441 33.0005C15.3831 33.0472 15.2145 33.0618 15.0479 33.0434C14.8813 33.0249 14.7199 32.9739 14.573 32.8931C14.4261 32.8123 14.2966 32.7034 14.1918 32.5725C14.087 32.4417 14.009 32.2915 13.9623 32.1305C13.9155 31.9695 13.901 31.8009 13.9194 31.6343C13.9378 31.4676 13.9889 31.3063 14.0697 31.1594C14.1504 31.0125 14.2594 30.883 14.3902 30.7782C14.5211 30.6734 14.6713 30.5954 14.8323 30.5486L16.3098 30.1203C15.9783 29.2458 15.5717 28.4017 15.0948 27.5973L13.8369 28.4869C13.7001 28.5836 13.5455 28.6524 13.382 28.6894C13.2186 28.7264 13.0494 28.7308 12.8843 28.7024C12.7191 28.674 12.5611 28.6133 12.4194 28.5239C12.2777 28.4345 12.1549 28.318 12.0582 28.1811C11.9615 28.0442 11.8927 27.8897 11.8557 27.7262C11.8188 27.5627 11.8143 27.3936 11.8427 27.2284C11.8711 27.0632 11.9318 26.9053 12.0212 26.7636C12.1107 26.6218 12.2271 26.4991 12.364 26.4024L13.6255 25.511C13.3065 25.1263 12.9701 24.7545 12.6138 24.399C12.2574 24.0435 11.8846 23.7045 11.5027 23.3854L10.6104 24.6487C10.415 24.9252 10.1179 25.1127 9.78433 25.17C9.45076 25.2274 9.10806 25.1498 8.83164 24.9545C8.55521 24.7592 8.3677 24.4621 8.31035 24.1285C8.25301 23.7949 8.33052 23.4522 8.52584 23.1758L9.41726 21.9143C8.61275 21.437 7.7683 21.0305 6.89341 20.6994L6.46593 22.1823C6.37153 22.5074 6.15184 22.7818 5.85519 22.9449C5.55854 23.1081 5.20922 23.1467 4.88408 23.0523C4.55895 22.9579 4.28463 22.7382 4.12148 22.4416C3.95832 22.1449 3.91969 21.7956 4.01409 21.4705L4.44521 19.9857C3.65481 19.8214 2.85321 19.7166 2.04715 19.6721C1.96603 19.6676 1.884 19.6648 1.80288 19.6612L1.81746 20.6264C1.82429 21.0131 1.67728 21.3866 1.40876 21.6649C1.14023 21.9431 0.772186 22.1034 0.38555 22.1103H0.359117C0.237945 22.1098 0.11731 22.0942 0 22.0638C0.686893 25.6795 2.41133 29.0171 4.9629 31.6693C7.51447 34.3215 10.7828 36.1738 14.3692 37C14.3509 36.903 14.3427 36.8043 14.3446 36.7056Z" fill="white"/>
</svg>
