<svg width="38" height="37" viewBox="0 0 38 37" fill="none" xmlns="http://www.w3.org/2000/svg">
<path d="M18.5054 16.4807L21.5794 13.4068C18.6905 10.0499 17.1035 5.76718 17.1072 1.33845C17.1072 0.892298 17.1241 0.441687 17.1553 0C13.2006 0.278679 9.44031 1.8219 6.42993 4.4017L18.5054 16.4807Z" fill="white"/>
<path d="M23.6039 11.3821L30.5808 4.4017C27.614 1.85867 23.9174 0.321677 20.0222 0.0115967C19.9856 0.448822 19.9651 0.891402 19.9651 1.33844C19.9614 5.00969 21.2496 8.56518 23.6039 11.3821Z" fill="white"/>
<path d="M25.6233 13.4014C28.4399 15.7567 31.9954 17.0458 35.667 17.0429C36.1131 17.0429 36.5593 17.0223 36.9938 16.9858C36.6843 13.0896 35.1473 9.39202 32.6037 6.42453L25.6233 13.4014Z" fill="white"/>
<path d="M11.3874 23.5986C8.57088 21.2432 5.0153 19.9541 1.34369 19.9571C0.896353 19.9571 0.454071 19.9762 0.0168457 20.0142C0.326372 23.9104 1.8634 27.608 4.40695 30.5755L11.3874 23.5986Z" fill="white"/>
<path d="M18.5054 20.5193L15.4314 23.5932C18.3202 26.9501 19.9073 31.2328 19.9036 35.6615C19.9036 36.1077 19.8866 36.5583 19.8554 37C23.8102 36.7215 27.5705 35.1783 30.5808 32.5983L18.5054 20.5193Z" fill="white"/>
<path d="M35.6669 19.8983C31.2382 19.902 26.9555 18.3149 23.5986 15.4261L20.5247 18.5L32.6037 30.5755C35.1854 27.5658 36.7306 23.8055 37.0107 19.8501C36.5637 19.8813 36.1167 19.8983 35.6669 19.8983Z" fill="white"/>
<path d="M16.4861 18.5L4.40706 6.42453C1.82515 9.43411 0.280004 13.1945 0 17.1499C0.446149 17.1187 0.892298 17.1018 1.33845 17.1018C5.76718 17.0981 10.0499 18.6851 13.4068 21.574L16.4861 18.5Z" fill="white"/>
<path d="M6.42993 32.5983C9.39669 35.1413 13.0933 36.6783 16.9885 36.9884C17.026 36.5512 17.045 36.1089 17.0456 35.6616C17.0487 31.99 15.7595 28.4344 13.4041 25.6179L6.42993 32.5983Z" fill="white"/>
</svg>
