<svg width="44" height="37" viewBox="0 0 44 37" fill="none" xmlns="http://www.w3.org/2000/svg">
<path d="M34.3021 37C32.5488 37 30.8349 36.4801 29.3772 35.5061C27.9194 34.532 26.7832 33.1475 26.1123 31.5278C25.4413 29.908 25.2658 28.1256 25.6078 26.406C25.9499 24.6865 26.7941 23.107 28.0339 21.8672C29.2736 20.6275 30.8531 19.7832 32.5727 19.4412C34.2922 19.0992 36.0746 19.2747 37.6944 19.9457C39.3142 20.6166 40.6986 21.7528 41.6727 23.2106C42.6467 24.6683 43.1666 26.3822 43.1666 28.1354C43.1641 30.4857 42.2293 32.7389 40.5674 34.4008C38.9056 36.0627 36.6523 36.9974 34.3021 37ZM34.3021 22.3542C33.1586 22.3542 32.0409 22.6933 31.0902 23.3285C30.1395 23.9638 29.3985 24.8667 28.9609 25.9231C28.5233 26.9794 28.4088 28.1419 28.6319 29.2633C28.855 30.3848 29.4056 31.4149 30.2141 32.2234C31.0226 33.0319 32.0528 33.5825 33.1742 33.8056C34.2957 34.0287 35.4581 33.9142 36.5144 33.4766C37.5708 33.039 38.4737 32.298 39.109 31.3473C39.7442 30.3966 40.0833 29.2789 40.0833 28.1354C40.0815 26.6027 39.4718 25.1333 38.388 24.0495C37.3042 22.9657 35.8348 22.356 34.3021 22.3542Z" fill="white"/>
<path d="M8.86456 37C7.11132 37 5.39745 36.4801 3.93968 35.5061C2.48191 34.532 1.34572 33.1475 0.674778 31.5278C0.00384087 29.908 -0.171707 28.1256 0.170334 26.406C0.512375 24.6865 1.35664 23.107 2.59637 21.8672C3.8361 20.6275 5.41562 19.7832 7.13517 19.4412C8.85473 19.0992 10.6371 19.2747 12.2569 19.9457C13.8767 20.6166 15.2611 21.7528 16.2352 23.2106C17.2092 24.6683 17.7291 26.3822 17.7291 28.1354C17.7266 30.4857 16.7918 32.7389 15.1299 34.4008C13.4681 36.0627 11.2148 36.9974 8.86456 37ZM8.86456 22.3542C7.72114 22.3542 6.6034 22.6933 5.65268 23.3285C4.70196 23.9638 3.96097 24.8667 3.5234 25.9231C3.08583 26.9794 2.97134 28.1419 3.19441 29.2633C3.41748 30.3848 3.96809 31.4149 4.77661 32.2234C5.58513 33.0319 6.61525 33.5825 7.7367 33.8056C8.85815 34.0287 10.0206 33.9142 11.0769 33.4766C12.1333 33.039 13.0362 32.298 13.6715 31.3473C14.3067 30.3966 14.6458 29.2789 14.6458 28.1354C14.644 26.6027 14.0343 25.1333 12.9505 24.0495C11.8667 22.9657 10.3973 22.356 8.86456 22.3542Z" fill="white"/>
<path d="M27.75 6.16675C28.1561 6.16816 28.5585 6.08905 28.9338 5.93399C29.3092 5.77893 29.6501 5.55101 29.9368 5.26339C30.2235 4.97578 30.4504 4.63418 30.6042 4.25834C30.7581 3.88251 30.836 3.4799 30.8333 3.07379C30.8378 2.66971 30.7617 2.26879 30.6094 1.89447C30.4571 1.52016 30.2318 1.17996 29.9465 0.893763C29.6612 0.60757 29.3217 0.381131 28.9478 0.227686C28.574 0.0742412 28.1733 -0.00313015 27.7692 9.69439e-05C27.3643 -0.0011684 26.9631 0.0773309 26.5886 0.231113C26.214 0.384896 25.8734 0.61095 25.5862 0.896369C25.299 1.18179 25.0708 1.52098 24.9147 1.89458C24.7586 2.26818 24.6775 2.66888 24.6763 3.07379C24.675 3.47869 24.7535 3.87989 24.9073 4.25446C25.0611 4.62903 25.2871 4.96964 25.5726 5.25685C25.858 5.54406 26.1972 5.77224 26.5708 5.92836C26.9444 6.08448 27.3451 6.16548 27.75 6.16675Z" fill="white"/>
<path d="M32.3315 12.3334H28.1151C28.0459 12.3334 27.978 12.3148 27.9185 12.2795C27.859 12.2443 27.8101 12.1937 27.7769 12.133L24.7186 6.52807C24.5031 6.11154 24.1926 5.75161 23.8121 5.4774C23.4317 5.20319 22.992 5.02241 22.5287 4.9497C22.0654 4.87698 21.5915 4.91438 21.1454 5.05886C20.6992 5.20334 20.2934 5.45084 19.9606 5.78133L13.2293 12.5646C12.6638 13.1418 12.3428 13.915 12.3333 14.723C12.3333 16.3995 13.5473 16.9969 14.1158 17.3342C16.8619 18.9163 18.7957 20.0735 19.8566 20.7162C19.913 20.7505 19.9596 20.7988 19.992 20.8563C20.0244 20.9138 20.0415 20.9787 20.0416 21.0448V27.7047C20.0416 28.5343 20.6794 29.2464 21.509 29.2878C21.7173 29.2979 21.9255 29.2655 22.1209 29.1928C22.3163 29.1201 22.495 29.0085 22.646 28.8647C22.7971 28.721 22.9174 28.548 22.9997 28.3564C23.082 28.1649 23.1246 27.9585 23.1249 27.75V19.4636C23.125 19.2188 23.0669 18.9776 22.9553 18.7598C22.8437 18.542 22.6819 18.3538 22.4832 18.211L18.9181 15.647C18.8733 15.615 18.836 15.5738 18.8085 15.5261C18.781 15.4784 18.764 15.4254 18.7587 15.3706C18.7534 15.3159 18.7599 15.2606 18.7778 15.2086C18.7956 15.1565 18.8244 15.1089 18.8622 15.0689L22.9091 10.7532C22.9506 10.7088 23.002 10.6748 23.0591 10.6541C23.1162 10.6333 23.1774 10.6264 23.2377 10.6338C23.298 10.6412 23.3558 10.6628 23.4061 10.6968C23.4565 10.7308 23.4982 10.7762 23.5276 10.8293L25.6301 14.6237C25.7637 14.8643 25.9593 15.0646 26.1965 15.2041C26.4337 15.3435 26.7039 15.4169 26.979 15.4167H32.3749C32.5837 15.417 32.7904 15.3748 32.9825 15.2927C33.1745 15.2106 33.3479 15.0904 33.4921 14.9393C33.6362 14.7882 33.7482 14.6093 33.8212 14.4136C33.8941 14.218 33.9266 14.0095 33.9165 13.8009C33.8761 12.9713 33.1611 12.3334 32.3315 12.3334Z" fill="white"/>
</svg>
