<svg width="184" height="132" viewBox="0 0 184 132" fill="none" xmlns="http://www.w3.org/2000/svg">
<path d="M71.8662 88.9573C71.8662 90.5856 71.3088 91.8397 70.1939 92.7198C69.0865 93.5926 67.4986 94.029 65.4303 94.029H63.5381V100.355H61.6678V84.2707H65.8374C69.8566 84.2707 71.8662 85.8329 71.8662 88.9573ZM63.5381 92.4228H65.2213C66.8788 92.4228 68.078 92.1551 68.8188 91.6197C69.5595 91.0843 69.9299 90.2262 69.9299 89.0454C69.9299 87.9819 69.5815 87.1898 68.8848 86.669C68.188 86.1483 67.1025 85.8879 65.6283 85.8879H63.5381V92.4228ZM80.4693 88.0772C81.0047 88.0772 81.4851 88.1212 81.9105 88.2092L81.6574 89.9035C81.1587 89.7935 80.7186 89.7384 80.3373 89.7384C79.3618 89.7384 78.5257 90.1345 77.8289 90.9266C77.1395 91.7187 76.7948 92.7052 76.7948 93.886V100.355H74.9686V88.2973H76.4758L76.6848 90.5305H76.7728C77.2202 89.7458 77.7593 89.1407 78.39 88.7153C79.0208 88.2899 79.7138 88.0772 80.4693 88.0772ZM89.2594 100.575C87.4772 100.575 86.069 100.032 85.0349 98.9466C84.0081 97.8612 83.4947 96.354 83.4947 94.4251C83.4947 92.4815 83.9714 90.9376 84.9249 89.7935C85.8857 88.6493 87.1728 88.0772 88.7864 88.0772C90.2972 88.0772 91.4927 88.576 92.3728 89.5734C93.2529 90.5636 93.693 91.8727 93.693 93.5009V94.6561H85.3869C85.4236 96.0716 85.7793 97.1461 86.4541 97.8795C87.1361 98.6129 88.0933 98.9796 89.3254 98.9796C90.6236 98.9796 91.9071 98.7083 93.1759 98.1655V99.7938C92.5305 100.072 91.9181 100.27 91.3387 100.388C90.7666 100.513 90.0735 100.575 89.2594 100.575ZM88.7644 89.6064C87.7962 89.6064 87.0225 89.9218 86.4431 90.5526C85.871 91.1833 85.5336 92.0561 85.4309 93.1709H91.7347C91.7347 92.0194 91.478 91.1393 90.9646 90.5305C90.4512 89.9145 89.7178 89.6064 88.7644 89.6064ZM105.024 98.7376H104.925C104.082 99.9624 102.821 100.575 101.141 100.575C99.5641 100.575 98.3356 100.036 97.4555 98.9576C96.5827 97.8795 96.1463 96.3466 96.1463 94.359C96.1463 92.3715 96.5864 90.8276 97.4665 89.7274C98.3466 88.6273 99.5714 88.0772 101.141 88.0772C102.777 88.0772 104.031 88.6713 104.903 89.8595H105.046L104.969 88.9903L104.925 88.1432V83.2366H106.752V100.355H105.267L105.024 98.7376ZM101.372 99.0457C102.619 99.0457 103.521 98.7083 104.078 98.0335C104.643 97.3514 104.925 96.255 104.925 94.7441V94.359C104.925 92.6502 104.639 91.4327 104.067 90.7066C103.503 89.9731 102.597 89.6064 101.35 89.6064C100.279 89.6064 99.4578 90.0245 98.8857 90.8606C98.3209 91.6894 98.0386 92.8629 98.0386 94.381C98.0386 95.9213 98.3209 97.0837 98.8857 97.8685C99.4504 98.6533 100.279 99.0457 101.372 99.0457ZM112.461 100.355H110.635V88.2973H112.461V100.355ZM110.481 85.0298C110.481 84.6118 110.584 84.3074 110.789 84.1167C110.995 83.9187 111.251 83.8197 111.559 83.8197C111.853 83.8197 112.106 83.9187 112.318 84.1167C112.531 84.3147 112.637 84.6191 112.637 85.0298C112.637 85.4406 112.531 85.7486 112.318 85.954C112.106 86.152 111.853 86.251 111.559 86.251C111.251 86.251 110.995 86.152 110.789 85.954C110.584 85.7486 110.481 85.4406 110.481 85.0298ZM121.153 100.575C119.407 100.575 118.054 100.039 117.093 98.9686C116.14 97.8905 115.663 96.3686 115.663 94.4031C115.663 92.3861 116.147 90.8276 117.115 89.7274C118.091 88.6273 119.477 88.0772 121.274 88.0772C121.853 88.0772 122.432 88.1396 123.012 88.2643C123.591 88.3889 124.046 88.5356 124.376 88.7043L123.815 90.2555C123.412 90.0942 122.971 89.9621 122.495 89.8595C122.018 89.7494 121.596 89.6944 121.23 89.6944C118.78 89.6944 117.555 91.2566 117.555 94.381C117.555 95.8626 117.852 96.9994 118.446 97.7915C119.048 98.5836 119.935 98.9796 121.109 98.9796C122.113 98.9796 123.144 98.7633 124.2 98.3306V99.9478C123.393 100.366 122.377 100.575 121.153 100.575ZM130.966 99.0677C131.289 99.0677 131.6 99.0457 131.901 99.0017C132.202 98.9503 132.44 98.899 132.616 98.8476V100.245C132.418 100.34 132.125 100.417 131.736 100.476C131.355 100.542 131.01 100.575 130.702 100.575C128.37 100.575 127.203 99.3464 127.203 96.8894V89.7164H125.476V88.8363L127.203 88.0772L127.973 85.5029H129.03V88.2973H132.528V89.7164H129.03V96.8124C129.03 97.5385 129.202 98.0959 129.547 98.4846C129.891 98.8733 130.364 99.0677 130.966 99.0677ZM145.444 94.315C145.444 96.2806 144.949 97.8172 143.959 98.9246C142.968 100.025 141.601 100.575 139.855 100.575C138.777 100.575 137.82 100.322 136.984 99.8158C136.148 99.3097 135.502 98.5836 135.047 97.6375C134.593 96.6914 134.365 95.5839 134.365 94.315C134.365 92.3495 134.857 90.8203 135.839 89.7274C136.822 88.6273 138.186 88.0772 139.932 88.0772C141.619 88.0772 142.957 88.6383 143.948 89.7604C144.945 90.8826 145.444 92.4008 145.444 94.315ZM136.258 94.315C136.258 95.8552 136.566 97.0287 137.182 97.8355C137.798 98.6423 138.704 99.0457 139.899 99.0457C141.095 99.0457 142 98.6459 142.616 97.8465C143.24 97.0397 143.551 95.8626 143.551 94.315C143.551 92.7822 143.24 91.6197 142.616 90.8276C142 90.0281 141.087 89.6284 139.877 89.6284C138.682 89.6284 137.779 90.0208 137.171 90.8056C136.562 91.5904 136.258 92.7602 136.258 94.315ZM154.157 88.0772C154.692 88.0772 155.173 88.1212 155.598 88.2092L155.345 89.9035C154.846 89.7935 154.406 89.7384 154.025 89.7384C153.049 89.7384 152.213 90.1345 151.517 90.9266C150.827 91.7187 150.482 92.7052 150.482 93.886V100.355H148.656V88.2973H150.163L150.372 90.5305H150.46C150.908 89.7458 151.447 89.1407 152.078 88.7153C152.708 88.2899 153.401 88.0772 154.157 88.0772Z" fill="white"/>
<path d="M114.513 60.172C114.513 62.9362 113.574 65.055 111.696 66.5284C109.819 68.0018 107.159 68.7385 103.717 68.7385H99.2964V80.5515H97.3015V51.9576H104.303C111.109 51.9576 114.513 54.6957 114.513 60.172ZM99.2964 67.0173H103.228C106.448 67.0173 108.776 66.4893 110.21 65.4331C111.644 64.364 112.361 62.6363 112.361 60.2502C112.361 58.0467 111.683 56.4168 110.327 55.3607C108.971 54.2915 106.872 53.7569 104.029 53.7569H99.2964V67.0173ZM141.444 80.5515H139.43V66.4893H122.727V80.5515H120.732V51.9576H122.727V64.6508H139.43V51.9576H141.444V80.5515ZM149.561 80.5515V51.9576H151.556V80.5515H149.561Z" fill="white"/>
<path d="M17.8369 14.3948C11.4527 14.3948 6.25854 19.5889 6.25854 25.9732C6.25854 32.3574 11.4527 37.5516 17.8369 37.5516C24.2212 37.5516 29.4153 32.3574 29.4153 25.9732C29.4153 19.5889 24.2212 14.3948 17.8369 14.3948ZM25.7971 31.317H23.2799C23.2019 31.3169 23.1253 31.2962 23.0578 31.2571C22.9903 31.2181 22.9343 31.1619 22.8953 31.0944L21.9968 29.5536C21.9377 29.4528 21.9205 29.3329 21.9489 29.2196L22.7761 25.8841C22.7927 25.8169 22.8248 25.7545 22.8697 25.7018C22.9146 25.6492 22.9712 25.6077 23.035 25.5807L24.5992 24.9183C24.6756 24.8859 24.7596 24.8755 24.8416 24.8883C24.9236 24.9011 25.0005 24.9365 25.0634 24.9907L27.3808 26.9846C27.4379 27.0338 27.4816 27.0967 27.5078 27.1674C27.534 27.238 27.5418 27.3142 27.5305 27.3887C27.3386 28.7054 26.8786 29.9687 26.179 31.1005C26.1394 31.1665 26.0835 31.2212 26.0166 31.2591C25.9496 31.297 25.874 31.317 25.7971 31.317ZM11.0747 24.9228L12.6389 25.5852C12.7027 25.6122 12.7593 25.6536 12.8042 25.7063C12.8491 25.7589 12.8812 25.8214 12.8978 25.8886L13.7249 29.224C13.7534 29.3373 13.7362 29.4573 13.6771 29.558L12.7786 31.0944C12.7396 31.1619 12.6836 31.2181 12.6161 31.2571C12.5486 31.2962 12.472 31.3169 12.394 31.317H9.87679C9.80066 31.3171 9.72579 31.2976 9.65933 31.2605C9.59286 31.2234 9.53703 31.1698 9.49716 31.105C8.79752 29.9732 8.33752 28.7099 8.1456 27.3932C8.13432 27.3187 8.14214 27.2425 8.16833 27.1718C8.19452 27.1011 8.23822 27.0382 8.29534 26.9891L10.6127 24.9951C10.6754 24.9414 10.7518 24.9062 10.8334 24.8934C10.915 24.8806 10.9986 24.8908 11.0747 24.9228ZM25.3774 20.0665L24.3715 22.9266C24.3513 22.9851 24.3191 23.0387 24.277 23.084C24.235 23.1293 24.1839 23.1654 24.1271 23.1899L22.4805 23.8874C22.405 23.9194 22.3221 23.9298 22.2409 23.9176C22.1598 23.9055 22.0836 23.8711 22.0208 23.8184L18.889 21.1915C18.839 21.1501 18.7986 21.0983 18.7707 21.0396C18.7428 20.981 18.7281 20.9169 18.7276 20.852V18.9827C18.7276 18.9095 18.7457 18.8374 18.7803 18.7728C18.8149 18.7082 18.8648 18.6532 18.9258 18.6125L21.3099 17.0239C21.3721 16.9823 21.4438 16.9571 21.5183 16.9506C21.5928 16.9441 21.6678 16.9565 21.7363 16.9866C23.1081 17.5849 24.3256 18.488 25.2961 19.6273C25.3471 19.6869 25.3815 19.7589 25.3958 19.836C25.4101 19.9131 25.4037 19.9926 25.3774 20.0665ZM14.3634 17.0239L16.7481 18.6125C16.8091 18.6532 16.859 18.7082 16.8936 18.7728C16.9281 18.8374 16.9463 18.9095 16.9463 18.9827V20.852C16.9463 20.917 16.932 20.9813 16.9045 21.0402C16.877 21.0992 16.8369 21.1514 16.7871 21.1932L13.6554 23.82C13.5925 23.8728 13.5163 23.9071 13.4352 23.9193C13.354 23.9315 13.2711 23.921 13.1956 23.8891L11.5468 23.1899C11.4896 23.1657 11.4382 23.1298 11.3957 23.0846C11.3532 23.0393 11.3207 22.9857 11.3002 22.9272L10.2943 20.0671C10.2681 19.9929 10.2621 19.9132 10.2768 19.8359C10.2914 19.7587 10.3263 19.6867 10.3778 19.6273C11.3489 18.4869 12.5673 17.5829 13.9404 16.9843C14.0086 16.9551 14.083 16.9435 14.1569 16.9504C14.2308 16.9573 14.3018 16.9825 14.3634 17.0239ZM15.327 35.252L14.2287 32.486C14.2036 32.4231 14.1932 32.3554 14.1982 32.2878C14.2032 32.2203 14.2235 32.1548 14.2577 32.0964L15.1021 30.6491C15.1411 30.5815 15.1972 30.5254 15.2647 30.4863C15.3322 30.4472 15.4088 30.4266 15.4867 30.4264H20.1871C20.2651 30.4266 20.3417 30.4472 20.4092 30.4863C20.4767 30.5254 20.5328 30.5815 20.5718 30.6491L21.4168 32.0964C21.451 32.1548 21.4714 32.2203 21.4766 32.2878C21.4817 32.3553 21.4713 32.4231 21.4463 32.486L20.3558 35.2509C20.3291 35.3185 20.2863 35.3786 20.2311 35.4258C20.1759 35.4731 20.11 35.5061 20.0391 35.522C18.592 35.8541 17.0885 35.8541 15.6415 35.522C15.5711 35.5059 15.5057 35.4729 15.4509 35.4258C15.3961 35.3788 15.3536 35.3192 15.327 35.252Z" fill="white"/>
<path d="M45.4726 65.9808C45.4726 70.6877 44.1296 74.293 41.4436 76.7964C38.7707 79.2998 34.9047 80.5515 29.8456 80.5515H21.7486V51.9576H30.7258C35.3936 51.9576 39.0184 53.1898 41.6001 55.6541C44.1817 58.1184 45.4726 61.5606 45.4726 65.9808ZM39.1749 66.1372C39.1749 59.996 36.4628 56.9254 31.0387 56.9254H27.8116V75.5447H30.4128C36.2542 75.5447 39.1749 72.4089 39.1749 66.1372ZM67.8666 80.5515H51.3987V51.9576H67.8666V56.9254H57.4617V63.2035H67.1429V68.1713H57.4617V75.5447H67.8666V80.5515ZM73.8514 80.5515V51.9576H79.9144V75.5447H91.5123V80.5515H73.8514Z" fill="white"/>
<path opacity="0.45" d="M169.489 103.65C167.784 107.162 164.109 109.654 158.663 111.035C153.222 112.414 146.144 112.645 137.886 111.736C121.378 109.919 100.368 103.571 78.7937 93.0956C57.2191 82.6198 39.2377 70.0351 27.6014 58.1864C21.7801 52.2589 17.5844 46.5536 15.3033 41.425C13.0199 36.2911 12.7057 31.8622 14.411 28.3501C16.1163 24.8381 19.7911 22.346 25.2377 20.9655C30.6785 19.5864 37.7568 19.3552 46.0149 20.2641C62.5223 22.0809 83.5321 28.4287 105.107 38.9044C126.681 49.3802 144.663 61.9649 156.299 73.8136C162.12 79.7411 166.316 85.4464 168.597 90.575C170.881 95.7089 171.195 100.138 169.489 103.65Z" stroke="white" stroke-width="1.87758"/>
</svg>
